<mxfile host="app.diagrams.net" modified="2021-10-22T09:00:49.541Z" agent="5.0 (Macintosh; Intel Mac OS X 10_15_7) AppleWebKit/605.1.15 (KHTML, like Gecko) Version/15.0 Safari/605.1.15" etag="OnPChk_1xZAXXE3nIRh2" version="15.5.7" type="github">
  <diagram id="la29R1w4cDkOsRNx4IMg" name="Page-1">
    <mxGraphModel dx="902" dy="612" grid="1" gridSize="10" guides="1" tooltips="1" connect="1" arrows="1" fold="1" page="1" pageScale="1" pageWidth="827" pageHeight="1169" math="0" shadow="0">
      <root>
        <mxCell id="0" />
        <mxCell id="1" parent="0" />
        <mxCell id="vtM3HyUcIMBrUC__J3-C-1" value="" style="rounded=0;whiteSpace=wrap;html=1;" parent="1" vertex="1">
          <mxGeometry x="10" y="80" width="1100" height="420" as="geometry" />
        </mxCell>
        <mxCell id="vtM3HyUcIMBrUC__J3-C-27" value="&lt;font color=&quot;#009900&quot;&gt;&lt;span&gt;作业队列配置&lt;/span&gt;&lt;/font&gt;" style="rounded=1;whiteSpace=wrap;html=1;fontSize=14;fontColor=#000000;strokeColor=#009900;fillColor=#CCFFFF;strokeWidth=1;" parent="1" vertex="1">
          <mxGeometry x="30" y="90" width="90" height="30" as="geometry" />
        </mxCell>
        <mxCell id="vtM3HyUcIMBrUC__J3-C-73" value="&lt;table border=&quot;1&quot; style=&quot;border: 1px solid rgb(0 , 0 , 0) ; border-collapse: collapse ; background-color: rgb(255 , 255 , 255)&quot; align=&quot;left&quot;&gt;&lt;tbody&gt;&lt;tr&gt;&lt;td style=&quot;background-color: rgb(204 , 204 , 204)&quot;&gt;ID&lt;/td&gt;&lt;td style=&quot;border-collapse: collapse ; background-color: rgb(204 , 204 , 204)&quot;&gt;User&lt;/td&gt;&lt;td style=&quot;background-color: rgb(204 , 204 , 204)&quot;&gt;Name&lt;/td&gt;&lt;td style=&quot;background-color: rgb(204 , 204 , 204)&quot;&gt;Queue&lt;/td&gt;&lt;td style=&quot;background-color: rgb(204 , 204 , 204)&quot;&gt;操作&lt;/td&gt;&lt;td style=&quot;background-color: rgb(204 , 204 , 204)&quot;&gt;&lt;span&gt;j&lt;/span&gt;ar &amp;nbsp;包名&lt;/td&gt;&lt;td style=&quot;background-color: rgb(204 , 204 , 204)&quot;&gt;State&lt;/td&gt;&lt;td style=&quot;border-collapse: collapse ; background-color: rgb(204 , 204 , 204)&quot;&gt;Start Time&lt;/td&gt;&lt;td style=&quot;background-color: rgb(204 , 204 , 204)&quot;&gt;&amp;nbsp;Launch Time&lt;/td&gt;&lt;td style=&quot;background-color: rgb(204 , 204 , 204)&quot;&gt;Finish Time&lt;/td&gt;&lt;td style=&quot;background-color: rgb(204 , 204 , 204)&quot;&gt;Running Containers&lt;/td&gt;&lt;td style=&quot;background-color: rgb(204 , 204 , 204)&quot;&gt;Allocated CPU VCores&lt;br&gt;&lt;/td&gt;&lt;td style=&quot;background-color: rgb(204 , 204 , 204)&quot;&gt;Allocated Memory&lt;br&gt;MB&lt;/td&gt;&lt;td style=&quot;background-color: rgb(204 , 204 , 204)&quot;&gt;Reserved CPU VCores&lt;/td&gt;&lt;td style=&quot;background-color: rgb(204 , 204 , 204)&quot;&gt;Reserved Memory MB&lt;/td&gt;&lt;td style=&quot;background-color: rgb(204 , 204 , 204)&quot;&gt;% of Queue&lt;/td&gt;&lt;td style=&quot;background-color: rgb(204 , 204 , 204)&quot;&gt;% of Cluster&lt;/td&gt;&lt;td style=&quot;background-color: rgb(204 , 204 , 204)&quot;&gt;Flink WEB&lt;/td&gt;&lt;/tr&gt;&lt;tr&gt;&lt;td&gt;1&lt;/td&gt;&lt;td style=&quot;border-collapse: collapse&quot;&gt;appuser&lt;/td&gt;&lt;td&gt;alertFlinklog&lt;/td&gt;&lt;td&gt;root.xyd-prd-alert&lt;/td&gt;&lt;td style=&quot;border: 1px solid rgb(0 , 0 , 0) ; border-collapse: collapse&quot;&gt;一 一一一一&lt;/td&gt;&lt;td&gt;alert.jar&lt;br&gt;V1.1&lt;/td&gt;&lt;td&gt;运行中&lt;/td&gt;&lt;td&gt;20211018&lt;br&gt;10:44:10&lt;/td&gt;&lt;td&gt;20211018&lt;br&gt;10:44:10&lt;/td&gt;&lt;td&gt;-&lt;/td&gt;&lt;td&gt;21&lt;/td&gt;&lt;td&gt;21&lt;/td&gt;&lt;td&gt;43008&lt;/td&gt;&lt;td&gt;0&lt;/td&gt;&lt;td&gt;0&lt;/td&gt;&lt;td&gt;70.0&lt;/td&gt;&lt;td&gt;0.8&lt;/td&gt;&lt;td style=&quot;border: 1px solid rgb(0 , 0 , 0) ; border-collapse: collapse&quot;&gt;&lt;u&gt;&lt;font color=&quot;#0000ff&quot;&gt;flinkUI&lt;/font&gt;&lt;/u&gt;&lt;/td&gt;&lt;/tr&gt;&lt;tr&gt;&lt;td&gt;2&lt;/td&gt;&lt;td style=&quot;border-collapse: collapse&quot;&gt;appuser&lt;br&gt;&lt;/td&gt;&lt;td&gt;appFlinklog&lt;/td&gt;&lt;td&gt;root.xyd-prd-app&lt;br&gt;&lt;/td&gt;&lt;td&gt;&lt;br&gt;&lt;/td&gt;&lt;td&gt;app.jar&lt;br&gt;v1.4&lt;/td&gt;&lt;td&gt;已停止&lt;/td&gt;&lt;td&gt;20211018&lt;br&gt;11:44:10&lt;br&gt;&lt;/td&gt;&lt;td&gt;20211018&lt;br&gt;11:44:10&lt;br&gt;&lt;/td&gt;&lt;td&gt;20211019&lt;br&gt;10:44:10&lt;br&gt;&lt;/td&gt;&lt;td&gt;41&lt;/td&gt;&lt;td&gt;481&lt;/td&gt;&lt;td&gt;1662976&lt;/td&gt;&lt;td&gt;0&lt;/td&gt;&lt;td&gt;0&lt;/td&gt;&lt;td&gt;73.3&lt;/td&gt;&lt;td&gt;31.7&lt;/td&gt;&lt;td&gt;&lt;u&gt;&lt;font color=&quot;#0000ff&quot;&gt;flinkUI&lt;/font&gt;&lt;/u&gt;&lt;br&gt;&lt;/td&gt;&lt;/tr&gt;&lt;tr&gt;&lt;td&gt;3&lt;/td&gt;&lt;td style=&quot;border-collapse: collapse&quot;&gt;appuser&lt;br&gt;&lt;/td&gt;&lt;td&gt;timerFlinklog&lt;/td&gt;&lt;td&gt;root.xyd-prd-timer&lt;br&gt;&lt;/td&gt;&lt;td&gt;&lt;br&gt;&lt;/td&gt;&lt;td&gt;timer.jar&lt;br&gt;v1.5&lt;/td&gt;&lt;td&gt;运行中&lt;/td&gt;&lt;td&gt;20211018&lt;br&gt;12:44:10&lt;br&gt;&lt;/td&gt;&lt;td&gt;20211018&lt;br&gt;12:44:10&lt;br&gt;&lt;/td&gt;&lt;td&gt;&lt;br&gt;&lt;/td&gt;&lt;td&gt;21&lt;/td&gt;&lt;td&gt;21&lt;/td&gt;&lt;td&gt;43008&lt;/td&gt;&lt;td&gt;0&lt;/td&gt;&lt;td&gt;0&lt;/td&gt;&lt;td&gt;70.0&lt;/td&gt;&lt;td&gt;0.8&lt;/td&gt;&lt;td&gt;&lt;u&gt;&lt;font color=&quot;#0000ff&quot;&gt;flinkUI&lt;/font&gt;&lt;/u&gt;&lt;br&gt;&lt;/td&gt;&lt;/tr&gt;&lt;tr&gt;&lt;td&gt;&lt;br&gt;&lt;/td&gt;&lt;td&gt;&lt;br&gt;&lt;/td&gt;&lt;td&gt;&lt;br&gt;&lt;/td&gt;&lt;td&gt;&lt;br&gt;&lt;/td&gt;&lt;td&gt;&lt;br&gt;&lt;/td&gt;&lt;td&gt;&lt;br&gt;&lt;/td&gt;&lt;td&gt;&lt;br&gt;&lt;/td&gt;&lt;td&gt;&lt;br&gt;&lt;/td&gt;&lt;td&gt;&lt;br&gt;&lt;/td&gt;&lt;td&gt;&lt;br&gt;&lt;/td&gt;&lt;td&gt;&lt;br&gt;&lt;/td&gt;&lt;td&gt;&lt;br&gt;&lt;/td&gt;&lt;td&gt;&lt;br&gt;&lt;/td&gt;&lt;td&gt;&lt;br&gt;&lt;/td&gt;&lt;td&gt;&lt;br&gt;&lt;/td&gt;&lt;td&gt;&lt;br&gt;&lt;/td&gt;&lt;td&gt;&lt;br&gt;&lt;/td&gt;&lt;td&gt;&lt;br&gt;&lt;/td&gt;&lt;/tr&gt;&lt;tr&gt;&lt;td&gt;&lt;br&gt;&lt;/td&gt;&lt;td&gt;&lt;br&gt;&lt;/td&gt;&lt;td&gt;&lt;br&gt;&lt;/td&gt;&lt;td&gt;&lt;br&gt;&lt;/td&gt;&lt;td&gt;&lt;br&gt;&lt;/td&gt;&lt;td&gt;&lt;br&gt;&lt;/td&gt;&lt;td&gt;&lt;br&gt;&lt;/td&gt;&lt;td&gt;&lt;br&gt;&lt;/td&gt;&lt;td&gt;&lt;br&gt;&lt;/td&gt;&lt;td&gt;&lt;br&gt;&lt;/td&gt;&lt;td&gt;&lt;br&gt;&lt;/td&gt;&lt;td&gt;&lt;br&gt;&lt;/td&gt;&lt;td&gt;&lt;br&gt;&lt;/td&gt;&lt;td&gt;&lt;br&gt;&lt;/td&gt;&lt;td&gt;&lt;br&gt;&lt;/td&gt;&lt;td&gt;&lt;br&gt;&lt;/td&gt;&lt;td&gt;&lt;br&gt;&lt;/td&gt;&lt;td&gt;&lt;br&gt;&lt;/td&gt;&lt;/tr&gt;&lt;/tbody&gt;&lt;/table&gt;" style="rounded=0;whiteSpace=wrap;html=1;fontSize=14;fontColor=#000000;strokeColor=none;strokeWidth=1;fillColor=#FFFFFF;" parent="1" vertex="1">
          <mxGeometry x="12" y="130" width="1090" height="260" as="geometry" />
        </mxCell>
        <mxCell id="vtM3HyUcIMBrUC__J3-C-74" value="&lt;font color=&quot;#009900&quot;&gt;&lt;span&gt;停止&lt;/span&gt;&lt;/font&gt;" style="rounded=1;whiteSpace=wrap;html=1;fontSize=14;fontColor=#000000;strokeColor=#009900;fillColor=#CCFFFF;strokeWidth=1;" parent="1" vertex="1">
          <mxGeometry x="240.5" y="220" width="45" height="20" as="geometry" />
        </mxCell>
        <mxCell id="vtM3HyUcIMBrUC__J3-C-75" value="&lt;font color=&quot;#009900&quot;&gt;&lt;span&gt;启动&lt;/span&gt;&lt;/font&gt;" style="rounded=1;whiteSpace=wrap;html=1;fontSize=14;fontColor=#000000;strokeColor=#009900;fillColor=#CCFFFF;strokeWidth=1;" parent="1" vertex="1">
          <mxGeometry x="241" y="258" width="45" height="20" as="geometry" />
        </mxCell>
        <mxCell id="vtM3HyUcIMBrUC__J3-C-76" value="&lt;font color=&quot;#009900&quot;&gt;&lt;span&gt;停止&lt;/span&gt;&lt;/font&gt;" style="rounded=1;whiteSpace=wrap;html=1;fontSize=14;fontColor=#000000;strokeColor=#009900;fillColor=#CCFFFF;strokeWidth=1;" parent="1" vertex="1">
          <mxGeometry x="241" y="292" width="45" height="20" as="geometry" />
        </mxCell>
        <mxCell id="Jupdt_0H_-o9QoTlpiud-1" value="&lt;font color=&quot;#009900&quot;&gt;新增作业&lt;/font&gt;" style="rounded=1;whiteSpace=wrap;html=1;fontSize=14;fontColor=#000000;strokeColor=#009900;fillColor=#CCFFFF;strokeWidth=1;" vertex="1" parent="1">
          <mxGeometry x="140" y="90" width="90" height="30" as="geometry" />
        </mxCell>
      </root>
    </mxGraphModel>
  </diagram>
</mxfile>
